<svg width="65" height="65" viewBox="0 0 65 65" fill="none" xmlns="http://www.w3.org/2000/svg">
<path d="M10.8332 21.6667H8.1249M56.8749 21.6667H54.1666M32.4999 8.125V13.5417M28.4374 13.5417H36.5624M16.2499 40.625H24.3749M40.6249 40.625H48.7499M42.0061 7.66458H22.9936C16.2499 7.66458 14.7603 11.0229 13.8936 15.1396L10.8332 29.7917H54.1666L51.1061 15.1396C50.2395 11.0229 48.7499 7.66458 42.0061 7.66458ZM59.5561 53.6792C59.8541 56.8479 57.3082 59.5833 54.0582 59.5833H48.9666C46.0416 59.5833 45.6353 58.3375 45.1207 56.7937L44.5791 55.1687C43.8207 52.9479 43.3332 51.4583 39.4332 51.4583H25.5666C21.6666 51.4583 21.0978 53.1375 20.4207 55.1687L19.8791 56.7937C19.3645 58.3375 18.9582 59.5833 16.0332 59.5833H10.9416C7.69156 59.5833 5.14573 56.8479 5.44365 53.6792L6.96031 37.1854C7.33948 33.1229 8.1249 29.7917 15.2207 29.7917H49.7791C56.8749 29.7917 57.6603 33.1229 58.0395 37.1854L59.5561 53.6792Z" stroke="#F7645D" stroke-width="1.5" stroke-linecap="round" stroke-linejoin="round"/>
</svg>
