<svg width="44" height="50" viewBox="0 0 44 50" fill="none" xmlns="http://www.w3.org/2000/svg">
<path d="M22.9893 44.5737L21.6525 33.3238C21.6091 32.9572 21.4321 32.6195 21.1554 32.3753C20.8786 32.1311 20.5215 31.9974 20.1525 32H16.9996C16.9996 30.8065 16.5255 29.6619 15.6816 28.818C14.8377 27.9741 13.6931 27.5 12.4996 27.5C11.3062 27.5 10.1616 27.9741 9.31766 28.818C8.47374 29.6619 7.99964 30.8065 7.99964 32H4.84308C4.47399 31.9974 4.11691 32.1311 3.84016 32.3753C3.56342 32.6195 3.38644 32.9572 3.34308 33.3238L2.0062 44.5737C1.9817 44.7837 2.00186 44.9965 2.06536 45.1981C2.12885 45.3998 2.23425 45.5857 2.37464 45.7438C2.51604 45.9025 2.68932 46.0296 2.88317 46.1168C3.07701 46.204 3.28707 46.2494 3.49964 46.25H21.4921C21.706 46.2505 21.9175 46.2056 22.1127 46.1183C22.3079 46.0311 22.4824 45.9034 22.6246 45.7438C22.7644 45.5854 22.8691 45.3993 22.9319 45.1977C22.9948 44.9961 23.0143 44.7835 22.9893 44.5737ZM12.4996 29C13.2953 29 14.0583 29.3161 14.621 29.8787C15.1836 30.4413 15.4996 31.2044 15.4996 32H9.49964C9.49964 31.2044 9.81571 30.4413 10.3783 29.8787C10.9409 29.3161 11.704 29 12.4996 29ZM3.49964 44.75L4.84308 33.5H7.99964V35.75C7.99964 35.9489 8.07866 36.1397 8.21931 36.2803C8.35996 36.421 8.55073 36.5 8.74964 36.5C8.94855 36.5 9.13932 36.421 9.27997 36.2803C9.42062 36.1397 9.49964 35.9489 9.49964 35.75V33.5H15.4996V35.75C15.4996 35.9489 15.5787 36.1397 15.7193 36.2803C15.86 36.421 16.0507 36.5 16.2496 36.5C16.4486 36.5 16.6393 36.421 16.78 36.2803C16.9206 36.1397 16.9996 35.9489 16.9996 35.75V33.5H20.1637L21.4921 44.75H3.49964Z" fill="#18515C"/>
<path d="M24.3593 21V20.523H25.0973C25.1993 20.523 25.2833 20.505 25.3493 20.469C25.4153 20.433 25.4633 20.373 25.4933 20.289C25.5293 20.205 25.5473 20.088 25.5473 19.938V15.429C25.3973 15.615 25.2563 15.78 25.1243 15.924C24.9923 16.062 24.8663 16.17 24.7463 16.248C24.6263 16.326 24.5063 16.365 24.3863 16.365C24.2423 16.365 24.1193 16.305 24.0173 16.185C23.9153 16.065 23.8643 15.903 23.8643 15.699C23.9843 15.669 24.1133 15.63 24.2513 15.582C24.3893 15.528 24.5393 15.456 24.7013 15.366C24.8693 15.27 25.0523 15.15 25.2503 15.006L25.8803 14.538H26.8883V19.938C26.8883 20.064 26.9003 20.172 26.9243 20.262C26.9483 20.346 26.9933 20.412 27.0593 20.46C27.1253 20.502 27.2213 20.523 27.3473 20.523H28.0763V21H24.3593Z" fill="#3E3943"/>
<circle cx="26" cy="17.5" r="7" stroke="#18515C"/>
</svg>
