<svg width="24" height="24" viewBox="0 0 24 24" fill="none" xmlns="http://www.w3.org/2000/svg">
<path d="M19.4349 4.065H4.56494C3.9019 4.065 3.26602 4.32839 2.79717 4.79724C2.32833 5.26608 2.06494 5.90196 2.06494 6.565V17.435C2.06494 18.098 2.32833 18.7339 2.79717 19.2028C3.26602 19.6716 3.9019 19.935 4.56494 19.935H19.4349C20.098 19.935 20.7339 19.6716 21.2027 19.2028C21.6715 18.7339 21.9349 18.098 21.9349 17.435V6.565C21.9349 5.90196 21.6715 5.26608 21.2027 4.79724C20.7339 4.32839 20.098 4.065 19.4349 4.065ZM4.56494 5.065H19.4349C19.8135 5.06391 20.1782 5.20701 20.4549 5.46521C20.7317 5.72341 20.8998 6.07733 20.9249 6.455C18.4549 7.775 15.9749 9.085 13.4949 10.405C13.1594 10.6153 12.8045 10.7927 12.4349 10.935C12.1448 10.9923 11.8459 10.9871 11.5579 10.9198C11.27 10.8526 10.9997 10.7248 10.7649 10.545C9.34494 9.795 7.92494 9.035 6.51494 8.285C5.37494 7.685 4.21494 7.075 3.07494 6.465C3.09813 6.08572 3.26526 5.7296 3.54219 5.4694C3.81912 5.2092 4.18495 5.06455 4.56494 5.065ZM20.9349 17.435C20.9349 17.8328 20.7769 18.2144 20.4956 18.4957C20.2143 18.777 19.8328 18.935 19.4349 18.935H4.56494C4.16712 18.935 3.78559 18.777 3.50428 18.4957C3.22298 18.2144 3.06494 17.8328 3.06494 17.435V7.6C5.42494 8.84 7.77494 10.1 10.1349 11.35C10.5566 11.6085 11.0105 11.8103 11.4849 11.95C12.1793 12.0629 12.891 11.917 13.4849 11.54C14.9349 10.78 16.3749 10.01 17.8249 9.25C18.8649 8.69 19.8949 8.15 20.9349 7.6V17.435Z" fill="white"/>
</svg>
