<svg width="64" height="65" viewBox="0 0 64 65" fill="none" xmlns="http://www.w3.org/2000/svg">
<rect width="64" height="64" transform="translate(0 0.5)" fill="white"/>
<path d="M24.0002 59.1666H40.0002C53.3335 59.1666 58.6668 53.8332 58.6668 40.4999V24.4999C58.6668 11.1666 53.3335 5.83325 40.0002 5.83325H24.0002C10.6668 5.83325 5.3335 11.1666 5.3335 24.4999V40.4999C5.3335 53.8332 10.6668 59.1666 24.0002 59.1666Z" stroke="#F7645D" stroke-width="1.5" stroke-linecap="round" stroke-linejoin="round"/>
<path d="M31.9998 41.8334C33.2255 41.8334 34.4392 41.592 35.5715 41.123C36.7039 40.6539 37.7328 39.9664 38.5995 39.0997C39.4662 38.2331 40.1537 37.2042 40.6227 36.0718C41.0918 34.9394 41.3332 33.7258 41.3332 32.5001C41.3332 31.2744 41.0918 30.0607 40.6227 28.9284C40.1537 27.796 39.4662 26.7671 38.5995 25.9004C37.7328 25.0337 36.7039 24.3462 35.5715 23.8772C34.4392 23.4082 33.2255 23.1667 31.9998 23.1667C29.5245 23.1667 27.1505 24.1501 25.4002 25.9004C23.6498 27.6508 22.6665 30.0247 22.6665 32.5001C22.6665 34.9754 23.6498 37.3494 25.4002 39.0997C27.1505 40.8501 29.5245 41.8334 31.9998 41.8334Z" stroke="#F7645D" stroke-width="1.5" stroke-linecap="round" stroke-linejoin="round"/>
<path d="M47.0293 19.1667H47.0613" stroke="#F7645D" stroke-width="2" stroke-linecap="round" stroke-linejoin="round"/>
</svg>
