<svg width="66" height="66" viewBox="0 0 66 66" fill="none" xmlns="http://www.w3.org/2000/svg">
<path d="M5.5 27.5H60.5" stroke="#F7645D" stroke-width="1.5" stroke-miterlimit="10" stroke-linecap="round" stroke-linejoin="round"/>
<path d="M31.7568 56.375H17.7043C7.9418 56.375 5.4668 53.955 5.4668 44.3025V21.6975C5.4668 12.9525 7.5018 10.1475 15.1743 9.7075C15.9443 9.68 16.7968 9.6525 17.7043 9.6525H48.2568C58.0193 9.6525 60.4943 12.0725 60.4943 21.725V33.8525" stroke="#F7645D" stroke-width="1.5" stroke-linecap="round" stroke-linejoin="round"/>
<path d="M16.5 44H27.5M60.5 49.5C60.5 51.5625 59.9225 53.515 58.905 55.165C57.9355 56.7944 56.5585 58.1431 54.9094 59.0786C53.2602 60.0141 51.396 60.5039 49.5 60.5C47.604 60.5039 45.7398 60.0141 44.0906 59.0786C42.4415 58.1431 41.0645 56.7944 40.095 55.165C39.0482 53.4612 38.4959 51.4997 38.5 49.5C38.5 43.4225 43.4225 38.5 49.5 38.5C55.5775 38.5 60.5 43.4225 60.5 49.5Z" stroke="#F7645D" stroke-width="1.5" stroke-miterlimit="10" stroke-linecap="round" stroke-linejoin="round"/>
<path d="M45.2129 49.5L47.9354 52.2225L53.7929 46.805" stroke="#F7645D" stroke-width="1.5" stroke-linecap="round" stroke-linejoin="round"/>
</svg>
