<svg width="25" height="24" viewBox="0 0 25 24" fill="none" xmlns="http://www.w3.org/2000/svg">
<path d="M22.1484 19.875C20.7206 17.4065 18.5203 15.6365 15.9525 14.7975C17.2226 14.0414 18.2094 12.8892 18.7614 11.5179C19.3134 10.1467 19.3999 8.63211 19.0078 7.20688C18.6157 5.78165 17.7666 4.52454 16.5909 3.6286C15.4151 2.73266 13.9778 2.24744 12.4996 2.24744C11.0215 2.24744 9.58414 2.73266 8.40842 3.6286C7.23269 4.52454 6.38358 5.78165 5.99146 7.20688C5.59935 8.63211 5.68592 10.1467 6.23788 11.5179C6.78984 12.8892 7.77668 14.0414 9.04683 14.7975C6.47902 15.6356 4.27871 17.4056 2.85089 19.875C2.79853 19.9604 2.7638 20.0554 2.74875 20.1544C2.7337 20.2534 2.73863 20.3544 2.76326 20.4515C2.78789 20.5486 2.83171 20.6397 2.89214 20.7196C2.95257 20.7995 3.02838 20.8664 3.1151 20.9165C3.20183 20.9666 3.29771 20.9988 3.39709 21.0113C3.49647 21.0237 3.59733 21.0161 3.69373 20.989C3.79012 20.9618 3.8801 20.9156 3.95835 20.8531C4.0366 20.7906 4.10154 20.713 4.14933 20.625C5.91558 17.5725 9.03746 15.75 12.4996 15.75C15.9618 15.75 19.0837 17.5725 20.85 20.625C20.8977 20.713 20.9627 20.7906 21.0409 20.8531C21.1192 20.9156 21.2092 20.9618 21.3056 20.989C21.402 21.0161 21.5028 21.0237 21.6022 21.0113C21.7016 20.9988 21.7975 20.9666 21.8842 20.9165C21.9709 20.8664 22.0467 20.7995 22.1072 20.7196C22.1676 20.6397 22.2114 20.5486 22.236 20.4515C22.2607 20.3544 22.2656 20.2534 22.2505 20.1544C22.2355 20.0554 22.2008 19.9604 22.1484 19.875ZM7.24964 8.99999C7.24964 7.96164 7.55755 6.9466 8.13443 6.08324C8.71131 5.21989 9.53124 4.54698 10.4906 4.14962C11.4499 3.75226 12.5055 3.64829 13.5239 3.85086C14.5423 4.05344 15.4777 4.55345 16.212 5.28768C16.9462 6.0219 17.4462 6.95736 17.6488 7.97576C17.8513 8.99416 17.7474 10.0498 17.35 11.0091C16.9527 11.9684 16.2797 12.7883 15.4164 13.3652C14.553 13.9421 13.538 14.25 12.4996 14.25C11.1077 14.2485 9.77322 13.6949 8.78898 12.7107C7.80473 11.7264 7.25113 10.3919 7.24964 8.99999Z" fill="#18515C"/>
</svg>
